{"title":"Furry.Vengeance.2010.BDRip.XviD-Larceny-[tracker.BTARENA.org].av","uid":5740387,"size":734203315,"categoryP":"video","categoryS":"movies","magnet":"?xt=urn:btih:87e37a2dfdc3b0a1b8ffd1ead199aaa41bbb1eb5&amp;dn=Furry.Vengeance.2010.BDRip.XviD-Larceny-%5Btracker.BTARENA.org%5D.av&amp;tr=udp%3A%2F%2Ftracker.openbittorrent.com%3A80&amp;tr=udp%3A%2F%2Fopen.demonii.com%3A1337&amp;tr=udp%3A%2F%2Ftracker.coppersurfer.tk%3A6969&amp;tr=udp%3A%2F%2Fexodus.desync.com%3A6969","seeders":0,"leechers":0,"uploader":"AiTB","files":2,"time":1281013605,"description":"info, sample\n\n &lt;a href=&quot;\nhttp://www.btarena.org/movies/bdrip/furry-vengeance-2010-bdrip-xvid-larceny&quot; rel=&quot;nofollow&quot; target=&quot;_NEW&quot;&gt;\nhttp://www.btarena.org/movies/bdrip/furry-vengeance-2010-bdrip-xvid-larceny&lt;/a&gt;\n\n\n\n/l-furry.vengeance-sample.avi\nFormat                           : AVI\nFormat/Info                      : Audio Video Interleave\nFile size                        : 5.64 MiB\nDuration                         : 1mn 1s\nOverall bit rate                 : 769 Kbps\nWriting application              : Nandub v1.0rc2\nWriting library                  : Nandub build 1852/release\n\nVideo\nID                               : 0\nFormat                           : MPEG-4 Visual\nFormat profile                   : Advanced Simple@L5\nFormat settings, BVOP            : Yes\nFormat settings, QPel            : No\nFormat settings, GMC             : No warppoints\nFormat settings, Matrix          : Default (H.263)\nCodec ID                         : XVID\nCodec ID/Hint                    : XviD\nDuration                         : 1mn 1s\nBit rate                         : 630 Kbps\nWidth                            : 624 pixels\nHeight                           : 352 pixels\nDisplay aspect ratio             : 16:9\nFrame rate                       : 23.976 fps\nResolution                       : 8 bits\nColorimetry                      : 4:2:0\nScan type                        : Progressive\nBits/(Pixel*Frame)               : 0.120\nStream size                      : 4.62 MiB (82%)\nWriting library                  : XviD 1.2.1 (UTC 2008-12-04)\n\nAudio\nID                               : 1\nFormat                           : MPEG Audio\nFormat version                   : Version 1\nFormat profile                   : Layer 3\nFormat_Settings_Mode             : Joint stereo\nFormat_Settings_ModeExtension    : MS Stereo\nCodec ID                         : 55\nCodec ID/Hint                    : MP3\nDuration                         : 1mn 1s\nBit rate mode                    : Variable\nBit rate                         : 128 Kbps\nChannel(s)                       : 2 channels\nSampling rate                    : 48.0 KHz\nStream size                      : 939 KiB (16%)\nAlignment                        : Aligned on interleaves\nInterleave, duration             : 24 ms (0.58 video frame)\nInterleave, preload duration     : 401 ms\n\n","torrent":{"xt":"urn:btih:87e37a2dfdc3b0a1b8ffd1ead199aaa41bbb1eb5","amp;dn":"Furry.Vengeance.2010.BDRip.XviD-Larceny-%5Btracker.BTARENA.org%5D.av","amp;tr":["udp%3A%2F%2Ftracker.openbittorrent.com%3A80","udp%3A%2F%2Fopen.demonii.com%3A1337","udp%3A%2F%2Ftracker.coppersurfer.tk%3A6969","udp%3A%2F%2Fexodus.desync.com%3A6969"],"infoHash":"87e37a2dfdc3b0a1b8ffd1ead199aaa41bbb1eb5","infoHashBuffer":{"type":"Buffer","data":[135,227,122,45,253,195,176,161,184,255,209,234,209,153,170,164,27,187,30,181]},"announce":[],"urlList":[]}}